<svg width="13" height="17" xmlns="http://www.w3.org/2000/svg" xmlns:xlink="http://www.w3.org/1999/xlink" overflow="hidden"><defs><clipPath id="clip0"><rect x="718" y="98" width="13" height="17"/></clipPath></defs><g clip-path="url(#clip0)" transform="translate(-718 -98)"><path d="M718.003 100.55C718.003 99.1477 719.122 98.0107 720.503 98.0107L729.253 98.0107C729.667 98.0107 730.003 98.3517 730.003 98.7726L730.003 111.471C730.003 111.892 729.667 112.233 729.253 112.233L726.753 112.233C726.338 112.233 726.003 111.892 726.003 111.471 726.003 111.05 726.338 110.709 726.753 110.709L728.503 110.709 728.503 108.677 720.503 108.677C719.95 108.677 719.503 109.132 719.503 109.693 719.503 109.959 719.605 110.215 719.789 110.404 720.079 110.705 720.074 111.188 719.778 111.482 719.482 111.777 719.007 111.772 718.717 111.471 718.258 110.997 718.002 110.358 718.003 109.693L718.003 100.55ZM728.503 99.5345 728.503 107.154 720.503 107.154C720.147 107.154 719.809 107.229 719.503 107.365L719.503 100.55C719.503 99.9893 719.95 99.5345 720.503 99.5345L728.503 99.5345ZM721.003 110.455 721.003 113.757C721.003 113.897 721.115 114.011 721.253 114.011 721.307 114.011 721.359 113.993 721.403 113.96L722.853 112.856C722.942 112.788 723.064 112.788 723.153 112.856L724.603 113.96C724.713 114.044 724.87 114.021 724.953 113.909 724.985 113.865 725.003 113.812 725.003 113.757L725.003 110.455C725.003 110.315 724.891 110.201 724.753 110.201L721.253 110.201C721.115 110.201 721.003 110.315 721.003 110.455Z" fill="#FFFFFF" fill-rule="evenodd"/></g></svg>