<svg width="17" height="15" xmlns="http://www.w3.org/2000/svg" xmlns:xlink="http://www.w3.org/1999/xlink" overflow="hidden"><defs><clipPath id="clip0"><rect x="716" y="689" width="17" height="15"/></clipPath></defs><g clip-path="url(#clip0)" transform="translate(-716 -689)"><path d="M718.5 690.75C718.5 690.336 718.164 690 717.75 690 717.336 690 717 690.336 717 690.75L717 703.25C717 703.664 717.336 704 717.75 704L732.25 704C732.664 704 733 703.664 733 703.25 733 702.836 732.664 702.5 732.25 702.5L718.5 702.5 718.5 690.75ZM732.78 693.28C733.062 692.977 733.046 692.502 732.743 692.22 732.455 691.952 732.008 691.952 731.72 692.22L727 696.94 724.53 694.47C724.237 694.178 723.763 694.178 723.47 694.47L720.22 697.72C719.938 698.023 719.954 698.498 720.257 698.78 720.545 699.048 720.992 699.048 721.28 698.78L724 696.06 726.47 698.53C726.763 698.822 727.237 698.822 727.53 698.53L732.78 693.28Z" fill="#FFFFFF" fill-rule="evenodd"/></g></svg>