<svg width="17" height="18" xmlns="http://www.w3.org/2000/svg" xmlns:xlink="http://www.w3.org/1999/xlink" overflow="hidden"><defs><clipPath id="clip0"><rect x="716" y="67" width="17" height="18"/></clipPath></defs><g clip-path="url(#clip0)" transform="translate(-716 -67)"><path d="M725.003 69.5079C721.413 69.5079 718.503 72.4181 718.503 76.0079 718.503 79.5977 721.413 82.5079 725.003 82.5079 728.592 82.5079 731.503 79.5977 731.503 76.0079 731.503 72.4181 728.592 69.5079 725.003 69.5079ZM717.003 76.0079C717.003 71.5896 720.584 68.0079 725.003 68.0079 729.421 68.0079 733.003 71.5896 733.003 76.0079 733.003 80.4261 729.421 84.0079 725.003 84.0079 720.584 84.0079 717.003 80.4261 717.003 76.0079ZM726.003 79.0079C726.003 79.5602 725.555 80.0079 725.003 80.0079 724.45 80.0079 724.003 79.5602 724.003 79.0079 724.003 78.4555 724.45 78.0079 725.003 78.0079 725.555 78.0079 726.003 78.4555 726.003 79.0079ZM725.753 72.7579C725.753 72.3436 725.417 72.0079 725.003 72.0079 724.588 72.0079 724.253 72.3436 724.253 72.7579L724.253 76.2579C724.253 76.6721 724.588 77.0079 725.003 77.0079 725.417 77.0079 725.753 76.6721 725.753 76.2579L725.753 72.7579Z" fill="#FFFFFF" fill-rule="evenodd"/></g></svg>