<svg width="15" height="16" xmlns="http://www.w3.org/2000/svg" xmlns:xlink="http://www.w3.org/1999/xlink" overflow="hidden"><defs><clipPath id="clip0"><rect x="718" y="39" width="15" height="16"/></clipPath></defs><g clip-path="url(#clip0)" transform="translate(-718 -39)"><path d="M723.89 41.578 726.374 39.082C726.475 38.9801 726.64 38.98 726.741 39.0815 726.79 39.1305 726.817 39.197 726.817 39.2664L726.817 44.2586C726.817 44.4024 726.702 44.5192 726.558 44.5195 726.489 44.5196 726.423 44.4921 726.374 44.443L723.89 41.9468C723.789 41.8453 723.789 41.6804 723.89 41.5786 723.89 41.5784 723.89 41.5783 723.89 41.578ZM720.337 40.9812C719.908 40.9812 719.56 41.331 719.56 41.7624 719.56 42.194 719.908 42.5438 720.337 42.5438 720.767 42.5438 721.115 42.194 721.115 41.7624 721.115 41.331 720.767 40.9812 720.337 40.9812ZM718.004 41.7624C718.005 40.4679 719.049 39.4188 720.338 39.4192 721.626 39.4196 722.67 40.4693 722.67 41.7639 722.67 42.757 722.047 43.6421 721.115 43.9731L721.115 49.4488C722.33 49.8802 722.967 51.2199 722.538 52.4411 722.108 53.6623 720.775 54.3024 719.56 53.8708 718.344 53.4394 717.707 52.0996 718.137 50.8785 718.372 50.2103 718.895 49.6848 719.56 49.4488L719.56 43.9731C718.627 43.6419 718.004 42.7561 718.004 41.7624ZM727.854 40.9812 726.817 40.9812 726.817 42.5438 727.854 42.5438C728.426 42.5438 728.891 43.0103 728.891 43.5856L728.891 49.4488C727.675 49.8802 727.038 51.2199 727.468 52.4411 727.897 53.6623 729.231 54.3024 730.446 53.8708 731.661 53.4394 732.298 52.0996 731.869 50.8785 731.634 50.2103 731.111 49.6848 730.446 49.4488L730.446 43.5856C730.446 42.1472 729.285 40.9812 727.854 40.9812ZM728.891 51.6594C728.891 51.2279 729.239 50.878 729.668 50.878 730.098 50.878 730.446 51.2279 730.446 51.6594 730.446 52.0909 730.098 52.4408 729.668 52.4408 729.239 52.4408 728.891 52.0909 728.891 51.6594ZM720.337 50.878C719.908 50.878 719.56 51.2279 719.56 51.6594 719.56 52.0909 719.908 52.4408 720.337 52.4408 720.767 52.4408 721.115 52.0909 721.115 51.6594 721.115 51.2279 720.767 50.878 720.337 50.878Z" fill="#FFFFFF" fill-rule="evenodd"/></g></svg>