<svg width="16" height="16" xmlns="http://www.w3.org/2000/svg" xmlns:xlink="http://www.w3.org/1999/xlink" overflow="hidden"><defs><clipPath id="clip0"><rect x="717" y="11" width="16" height="16"/></clipPath></defs><g clip-path="url(#clip0)" transform="translate(-717 -11)"><path d="M724.504 12C724.793 11.9998 725.057 12.16 725.185 12.4131L727.09 16.1842 731.352 16.7893C731.767 16.8481 732.055 17.2243 731.995 17.6295 731.971 17.7907 731.893 17.9397 731.774 18.0535L728.69 20.9893 729.418 25.133C729.489 25.5366 729.211 25.92 728.798 25.9893 728.633 26.0169 728.464 25.9908 728.316 25.9149L724.504 23.9577 720.691 25.9149C720.32 26.1053 719.861 25.9658 719.666 25.6032 719.588 25.4592 719.561 25.2943 719.589 25.1341L720.318 20.9883 717.233 18.0535C716.932 17.768 716.925 17.2987 717.218 17.0051 717.334 16.8879 717.488 16.8116 717.654 16.7882L721.916 16.1842 723.822 12.4131C723.95 12.16 724.214 11.9998 724.504 12ZM724.504 14.4169 723.101 17.1895C722.991 17.4081 722.777 17.5596 722.53 17.5949L719.395 18.0397 721.663 20.1985C721.842 20.3688 721.924 20.6143 721.881 20.8549L721.347 23.9034 724.15 22.4642C724.372 22.3506 724.636 22.3506 724.857 22.4642L727.661 23.9034 727.125 20.8549C727.082 20.6143 727.164 20.3688 727.343 20.1985L729.611 18.0406 726.477 17.5958C726.23 17.5605 726.016 17.409 725.906 17.1906L724.504 14.4159 724.504 14.4169Z" fill="#FFFFFF" fill-rule="evenodd"/></g></svg>