<svg width="971" height="733" xmlns="http://www.w3.org/2000/svg" xmlns:xlink="http://www.w3.org/1999/xlink"
     overflow="hidden">
    <defs>
        <clipPath id="clip0">
            <rect x="155" y="-75" width="971" height="733"/>
        </clipPath>
        <clipPath id="clip1">
            <rect x="717" y="594" width="16" height="16"/>
        </clipPath>
        <clipPath id="clip2">
            <rect x="717" y="594" width="16" height="16"/>
        </clipPath>
        <clipPath id="clip3">
            <rect x="717" y="594" width="16" height="16"/>
        </clipPath>
        <clipPath id="clip4">
            <rect x="717" y="620" width="16" height="16"/>
        </clipPath>
        <clipPath id="clip5">
            <rect x="717" y="620" width="16" height="16"/>
        </clipPath>
        <clipPath id="clip6">
            <rect x="717" y="620" width="16" height="16"/>
        </clipPath>
    </defs>
    <g clip-path="url(#clip0)" transform="translate(-155 75)">
        <path d="M651.5 329.5 769.569 573.293" stroke="#FFFFFF" stroke-width="0.666667" stroke-miterlimit="8"
              fill="none" fill-rule="evenodd"/>
        <path d="M651.5 326.5 735.369 576.651" stroke="#FFFFFF" stroke-width="0.666667" stroke-miterlimit="8"
              fill="none" fill-rule="evenodd"/>
        <path d="M0 0 138.057 249.067" stroke="#FFFFFF" stroke-width="0.666667" stroke-miterlimit="8" fill="none"
              fill-rule="evenodd" transform="matrix(-1 0 0 1 652.557 324.5)"/>
        <path d="M0 0 112.812 250.151" stroke="#FFFFFF" stroke-width="0.666667" stroke-miterlimit="8" fill="none"
              fill-rule="evenodd" transform="matrix(-1 0 0 1 654.312 323.5)"/>
        <path d="M0 0 225.328 261.681" stroke="#FFFFFF" stroke-width="0.666667" stroke-miterlimit="8" fill="none"
              fill-rule="evenodd" transform="matrix(-1 0 0 1 876.828 66.5001)"/>
        <path d="M0 0 201.731 258.509" stroke="#FFFFFF" stroke-width="0.666667" stroke-miterlimit="8" fill="none"
              fill-rule="evenodd" transform="matrix(-1 0 0 1 852.231 68.5001)"/>
        <path d="M543.5 68.5001 655.462 322.268" stroke="#FFFFFF" stroke-width="0.666667" stroke-miterlimit="8"
              fill="none" fill-rule="evenodd"/>
        <path d="M521.5 66.5001 657.105 328.288" stroke="#FFFFFF" stroke-width="0.666667" stroke-miterlimit="8"
              fill="none" fill-rule="evenodd"/>
        <path d="M155.5 103.5 1124.97 527.75" stroke="#FFFFFF" stroke-width="0.666667" stroke-miterlimit="8" fill="none"
              fill-rule="evenodd"/>
        <path d="M193.5 100.5 1040.52 508.941" stroke="#FFFFFF" stroke-width="0.666667" stroke-miterlimit="8"
              fill="none" fill-rule="evenodd"/>
        <path d="M224.5 96.5001 1047.85 535.882" stroke="#FFFFFF" stroke-width="0.666667" stroke-miterlimit="8"
              fill="none" fill-rule="evenodd"/>
        <path d="M245.5 117.079C245.5 109.58 251.58 103.5 259.079 103.5L1000.92 103.5C1008.42 103.5 1014.5 109.58 1014.5 117.079L1014.5 480.921C1014.5 488.42 1008.42 494.5 1000.92 494.5L259.079 494.5C251.58 494.5 245.5 488.42 245.5 480.921Z"
              stroke="#FFFFFF" stroke-width="1.33333" stroke-miterlimit="8" fill="#2F0A0F" fill-rule="evenodd"/>
        <path d="M342.847 361.821C332.086 260.216 452.968 164.123 612.845 147.191 772.722 130.258 911.051 198.899 921.811 300.503 932.572 402.108 811.69 498.201 651.813 515.133 491.937 532.065 353.608 463.425 342.847 361.821Z"
              stroke="#FFFFFF" stroke-width="4" stroke-linecap="round" stroke-miterlimit="8" stroke-dasharray="0 8"
              fill="#2F0A0F" fill-rule="evenodd"/>
        <path d="M632.5 151.5C632.5 132.17 648.17 116.5 667.5 116.5 686.83 116.5 702.5 132.17 702.5 151.5 702.5 170.83 686.83 186.5 667.5 186.5 648.17 186.5 632.5 170.83 632.5 151.5Z"
              stroke="#FFFFFF" stroke-width="1.33333" stroke-miterlimit="8" fill="#2F0A0F" fill-rule="evenodd"/>
        <path d="M245.5 201.5 1014.41 201.5" stroke="#FFFFFF" stroke-width="0.666667" stroke-miterlimit="8" fill="none"
              fill-rule="evenodd"/>
        <path d="M245.5 263.5 1014.41 263.5" stroke="#FFFFFF" stroke-width="0.666667" stroke-miterlimit="8" fill="none"
              fill-rule="evenodd"/>
        <path d="M245.5 326.5 1014.41 326.5" stroke="#FFFFFF" stroke-width="0.666667" stroke-miterlimit="8" fill="none"
              fill-rule="evenodd"/>
        <path d="M245.5 389.5 1014.41 389.5" stroke="#FFFFFF" stroke-width="0.666667" stroke-miterlimit="8" fill="none"
              fill-rule="evenodd"/>
        <path d="M425.5 186.5C425.5 167.17 440.946 151.5 460 151.5 479.054 151.5 494.5 167.17 494.5 186.5 494.5 205.83 479.054 221.5 460 221.5 440.946 221.5 425.5 205.83 425.5 186.5Z"
              stroke="#FFFFFF" stroke-width="1.33333" stroke-miterlimit="8" fill="#2F0A0F" fill-rule="evenodd"/>
        <path d="M317.5 315.5C317.5 296.17 333.17 280.5 352.5 280.5 371.83 280.5 387.5 296.17 387.5 315.5 387.5 334.83 371.83 350.5 352.5 350.5 333.17 350.5 317.5 334.83 317.5 315.5Z"
              stroke="#FFFFFF" stroke-width="1.33333" stroke-miterlimit="8" fill="#2F0A0F" fill-rule="evenodd"/>
        <path d="M830.5 204.5C830.5 185.17 845.946 169.5 865 169.5 884.054 169.5 899.5 185.17 899.5 204.5 899.5 223.83 884.054 239.5 865 239.5 845.946 239.5 830.5 223.83 830.5 204.5Z"
              stroke="#FFFFFF" stroke-width="1.33333" stroke-miterlimit="8" fill="#2F0A0F" fill-rule="evenodd"/>
        <path d="M887.5 341.5C887.5 322.17 902.946 306.5 922 306.5 941.054 306.5 956.5 322.17 956.5 341.5 956.5 360.83 941.054 376.5 922 376.5 902.946 376.5 887.5 360.83 887.5 341.5Z"
              stroke="#FFFFFF" stroke-width="1.33333" stroke-miterlimit="8" fill="#2F0A0F" fill-rule="evenodd"/>
        <path d="M746.5 482.5C746.5 463.17 762.17 447.5 781.5 447.5 800.83 447.5 816.5 463.17 816.5 482.5 816.5 501.83 800.83 517.5 781.5 517.5 762.17 517.5 746.5 501.83 746.5 482.5Z"
              stroke="#FFFFFF" stroke-width="1.33333" stroke-miterlimit="8" fill="#2F0A0F" fill-rule="evenodd"/>
        <path d="M421.5 483.5C421.5 464.17 436.946 448.5 456 448.5 475.054 448.5 490.5 464.17 490.5 483.5 490.5 502.83 475.054 518.5 456 518.5 436.946 518.5 421.5 502.83 421.5 483.5Z"
              stroke="#FFFFFF" stroke-width="1.33333" stroke-miterlimit="8" fill="#2F0A0F" fill-rule="evenodd"/>
        <path d="M279.5 155C279.5 137.603 293.603 123.5 311 123.5L428 123.5C445.397 123.5 459.5 137.603 459.5 155L459.5 155C459.5 172.397 445.397 186.5 428 186.5L311 186.5C293.603 186.5 279.5 172.397 279.5 155Z"
              stroke="#FFFFFF" stroke-width="1.33333" stroke-miterlimit="8" fill="#2F0A0F" fill-rule="evenodd"/>
        <text fill="#FFFFFF" font-family="JetBrains Mono,JetBrains Mono_MSFontService,sans-serif" font-weight="500"
              font-size="24" transform="translate(347.215 162)">Php
        </text>
        <path d="M282.5 509.5C282.5 492.379 296.379 478.5 313.5 478.5L431.5 478.5C448.621 478.5 462.5 492.379 462.5 509.5L462.5 509.5C462.5 526.621 448.621 540.5 431.5 540.5L313.5 540.5C296.379 540.5 282.5 526.621 282.5 509.5Z"
              stroke="#FFFFFF" stroke-width="1.33333" stroke-miterlimit="8" fill="#2F0A0F" fill-rule="evenodd"/>
        <text fill="#FFFFFF" font-family="JetBrains Mono,JetBrains Mono_MSFontService,sans-serif" font-weight="500"
              font-size="24" transform="translate(329.224 516)">Python
        </text>
        <path d="M172.5 334C172.5 316.603 186.603 302.5 204 302.5L321 302.5C338.397 302.5 352.5 316.603 352.5 334L352.5 334C352.5 351.397 338.397 365.5 321 365.5L204 365.5C186.603 365.5 172.5 351.397 172.5 334Z"
              stroke="#FFFFFF" stroke-width="1.33333" stroke-miterlimit="8" fill="#2F0A0F" fill-rule="evenodd"/>
        <text fill="#FFFFFF" font-family="JetBrains Mono,JetBrains Mono_MSFontService,sans-serif" font-weight="500"
              font-size="24" transform="translate(240.252 341)">SQl
        </text>
        <path d="M867.5 184C867.5 166.603 881.603 152.5 899 152.5L1017 152.5C1034.4 152.5 1048.5 166.603 1048.5 184L1048.5 184C1048.5 201.397 1034.4 215.5 1017 215.5L899 215.5C881.603 215.5 867.5 201.397 867.5 184Z"
              stroke="#FFFFFF" stroke-width="1.33333" stroke-miterlimit="8" fill="#2F0A0F" fill-rule="evenodd"/>
        <text fill="#FFFFFF" font-family="JetBrains Mono,JetBrains Mono_MSFontService,sans-serif" font-weight="500"
              font-size="24" transform="translate(943.327 191)">C#
        </text>
        <path d="M781.5 513.5C781.5 496.379 795.379 482.5 812.5 482.5L930.5 482.5C947.621 482.5 961.5 496.379 961.5 513.5L961.5 513.5C961.5 530.621 947.621 544.5 930.5 544.5L812.5 544.5C795.379 544.5 781.5 530.621 781.5 513.5Z"
              stroke="#FFFFFF" stroke-width="1.33333" stroke-miterlimit="8" fill="#2F0A0F" fill-rule="evenodd"/>
        <text fill="#FFFFFF" font-family="JetBrains Mono,JetBrains Mono_MSFontService,sans-serif" font-weight="500"
              font-size="24" transform="translate(842.493 521)">Scss
        </text>
        <path d="M929.5 327C929.5 309.603 943.603 295.5 961 295.5L1078 295.5C1095.4 295.5 1109.5 309.603 1109.5 327L1109.5 327C1109.5 344.397 1095.4 358.5 1078 358.5L961 358.5C943.603 358.5 929.5 344.397 929.5 327Z"
              stroke="#FFFFFF" stroke-width="1.33333" stroke-miterlimit="8" fill="#2F0A0F" fill-rule="evenodd"/>
        <text fill="#FFFFFF" font-family="JetBrains Mono,JetBrains Mono_MSFontService,sans-serif" font-weight="500"
              font-size="24" transform="translate(954.71 334)">Javascipt
        </text>
        <path d="M245.5-59.564C245.5-67.2607 251.739-73.5001 259.436-73.5001L618.564-73.5001C626.261-73.5001 632.5-67.2607 632.5-59.564L632.5 51.564C632.5 59.2607 626.261 65.5001 618.564 65.5001L259.436 65.5001C251.739 65.5001 245.5 59.2607 245.5 51.564Z"
              stroke="#FFFFFF" stroke-width="1.33333" stroke-miterlimit="8" fill="#2F0A0F" fill-rule="evenodd"/>
        <text fill="#FFFFFF" font-family="JetBrains Mono,JetBrains Mono_MSFontService,sans-serif" font-weight="500"
              font-size="32" transform="translate(272.433 -18)">Sigmanificient
            <tspan font-weight="700" font-size="16" x="9.15527e-05" y="29">FullStack</tspan>
            <tspan font-size="16" x="108.5" y="29">&amp;</tspan>
            <tspan font-weight="700" font-size="16" x="130.5" y="29">Pythonista</tspan>
            <tspan font-weight="700" font-size="16" x="9.15527e-05" y="48">Jetbrains</tspan>
            <tspan font-size="16" x="108.5" y="48">and</tspan>
            <tspan font-weight="700" font-size="16" x="152.5" y="48">TabNine</tspan>
            <tspan font-size="16" x="239.333" y="48">user</tspan>
        </text>
        <path d="M472.5 294C472.5 205.911 542.791 134.5 629.5 134.5 716.209 134.5 786.5 205.911 786.5 294 786.5 382.089 716.209 453.5 629.5 453.5 542.791 453.5 472.5 382.089 472.5 294Z"
              stroke="#FFFFFF" stroke-width="1.33333" stroke-miterlimit="8" fill="#2F0A0F" fill-rule="evenodd"/>
        <path d="M529.5 311C529.5 249.973 578.525 200.5 639 200.5 699.475 200.5 748.5 249.973 748.5 311 748.5 372.027 699.475 421.5 639 421.5 578.525 421.5 529.5 372.027 529.5 311Z"
              stroke="#FFFFFF" stroke-width="1.33333" stroke-miterlimit="8" fill="#2F0A0F" fill-rule="evenodd"/>
        <path d="M588.5 325.5C588.5 289.602 617.154 260.5 652.5 260.5 687.846 260.5 716.5 289.602 716.5 325.5 716.5 361.399 687.846 390.5 652.5 390.5 617.154 390.5 588.5 361.399 588.5 325.5Z"
              stroke="#FFFFFF" stroke-width="1.33333" stroke-miterlimit="8" fill="#2F0A0F" fill-rule="evenodd"/>
        <path d="M681.5-58.6641C681.5-66.3055 687.695-72.5001 695.336-72.5001L1002.66-72.5001C1010.31-72.5001 1016.5-66.3055 1016.5-58.6641L1016.5 51.6641C1016.5 59.3055 1010.31 65.5001 1002.66 65.5001L695.336 65.5001C687.695 65.5001 681.5 59.3055 681.5 51.6641Z"
              stroke="#FFFFFF" stroke-width="1.33333" stroke-miterlimit="8" fill="#2F0A0F" fill-rule="evenodd"/>
        <text fill="#FFFFFF" font-family="JetBrains Mono,JetBrains Mono_MSFontService,sans-serif" font-weight="500"
              font-size="43" transform="translate(929.893 6)">A+
            <tspan font-size="16" x="-187.076" y="-49">Stars: 72</tspan>
            <tspan font-size="16" x="-187.076" y="-21">Pull requests: 15</tspan>
            <tspan font-size="16" x="-187.076" y="8">Issues: 3</tspan>
            <tspan font-size="16" x="-187.076" y="37">Contributed to: 8</tspan>
        </text>
        <path d="M723.89-26.5938 726.374-28.9234C726.475-29.0186 726.64-29.0187 726.741-28.9239 726.79-28.8782 726.817-28.8162 726.817-28.7513L726.817-24.092C726.817-23.9578 726.702-23.8488 726.558-23.8484 726.489-23.8483 726.423-23.8741 726.374-23.9199L723.89-26.2496C723.789-26.3443 723.789-26.4983 723.89-26.5933 723.89-26.5935 723.89-26.5936 723.89-26.5938ZM720.337-27.1509C719.908-27.1509 719.56-26.8244 719.56-26.4217 719.56-26.0189 719.908-25.6924 720.337-25.6924 720.767-25.6924 721.115-26.0189 721.115-26.4217 721.115-26.8244 720.767-27.1509 720.337-27.1509ZM718.004-26.4217C718.005-27.63 719.049-28.6091 720.338-28.6087 721.626-28.6084 722.67-27.6286 722.67-26.4204 722.67-25.4935 722.047-24.6673 721.115-24.3584L721.115-19.2478C722.33-18.8451 722.967-17.5947 722.538-16.455 722.108-15.3152 720.775-14.7177 719.56-15.1206 718.344-15.5233 717.707-16.7737 718.137-17.9134 718.372-18.537 718.895-19.0275 719.56-19.2478L719.56-24.3584C718.627-24.6675 718.004-25.4943 718.004-26.4217ZM727.854-27.1509 726.817-27.1509 726.817-25.6924 727.854-25.6924C728.426-25.6924 728.891-25.2571 728.891-24.7201L728.891-19.2478C727.675-18.8451 727.038-17.5947 727.468-16.455 727.897-15.3152 729.231-14.7177 730.446-15.1206 731.661-15.5233 732.298-16.7737 731.869-17.9134 731.634-18.537 731.111-19.0275 730.446-19.2478L730.446-24.7201C730.446-26.0626 729.285-27.1509 727.854-27.1509ZM728.891-17.1845C728.891-17.5873 729.239-17.9138 729.668-17.9138 730.098-17.9138 730.446-17.5873 730.446-17.1845 730.446-16.7818 730.098-16.4553 729.668-16.4553 729.239-16.4553 728.891-16.7818 728.891-17.1845ZM720.337-17.9138C719.908-17.9138 719.56-17.5873 719.56-17.1845 719.56-16.7818 719.908-16.4553 720.337-16.4553 720.767-16.4553 721.115-16.7818 721.115-17.1845 721.115-17.5873 720.767-17.9138 720.337-17.9138Z"
              fill="#FFFFFF" fill-rule="evenodd"/>
        <path d="M725.003 0.507926C721.413 0.507926 718.503 3.41806 718.503 7.00787 718.503 10.5977 721.413 13.5079 725.003 13.5079 728.592 13.5079 731.503 10.5977 731.503 7.00787 731.503 3.41806 728.592 0.507926 725.003 0.507926ZM717.003 7.00787C717.003 2.58961 720.584-0.992126 725.003-0.992126 729.421-0.992126 733.003 2.58961 733.003 7.00787 733.003 11.4261 729.421 15.0079 725.003 15.0079 720.584 15.0079 717.003 11.4261 717.003 7.00787ZM726.003 10.0079C726.003 10.5602 725.555 11.0079 725.003 11.0079 724.45 11.0079 724.003 10.5602 724.003 10.0079 724.003 9.45554 724.45 9.00787 725.003 9.00787 725.555 9.00787 726.003 9.45554 726.003 10.0079ZM725.753 3.7579C725.753 3.34362 725.417 3.00787 725.003 3.00787 724.588 3.00787 724.253 3.34362 724.253 3.7579L724.253 7.25785C724.253 7.67213 724.588 8.00787 725.003 8.00787 725.417 8.00787 725.753 7.67213 725.753 7.25785L725.753 3.7579Z"
              fill="#FFFFFF" fill-rule="evenodd"/>
        <path d="M718.003 32.5504C718.003 31.1477 719.122 30.0107 720.503 30.0107L729.253 30.0107C729.667 30.0107 730.003 30.3517 730.003 30.7726L730.003 43.471C730.003 43.8919 729.667 44.233 729.253 44.233L726.753 44.233C726.338 44.233 726.003 43.8919 726.003 43.471 726.003 43.0503 726.338 42.7092 726.753 42.7092L728.503 42.7092 728.503 40.6774 720.503 40.6774C719.95 40.6774 719.503 41.1323 719.503 41.6934 719.503 41.9593 719.605 42.2145 719.789 42.4044 720.079 42.7051 720.074 43.1876 719.778 43.4822 719.482 43.7768 719.007 43.7718 718.717 43.471 718.258 42.9965 718.002 42.3581 718.003 41.6933L718.003 32.5504ZM728.503 31.5345 728.503 39.1536 720.503 39.1536C720.147 39.1536 719.809 39.2288 719.503 39.3648L719.503 32.5504C719.503 31.9893 719.95 31.5345 720.503 31.5345L728.503 31.5345ZM721.003 42.4551 721.003 45.7568C721.003 45.8971 721.115 46.0108 721.253 46.0108 721.307 46.0108 721.359 45.993 721.403 45.96L722.853 44.8557C722.942 44.788 723.064 44.788 723.153 44.8557L724.603 45.96C724.713 46.0442 724.87 46.0213 724.953 45.9091 724.985 45.8652 725.003 45.8118 725.003 45.7568L725.003 42.4551C725.003 42.3149 724.891 42.2012 724.753 42.2012L721.253 42.2012C721.115 42.2012 721.003 42.3149 721.003 42.4551Z"
              fill="#FFFFFF" fill-rule="evenodd"/>
        <path d="M724.504-57C724.793-57.0002 725.057-56.84 725.185-56.5869L727.09-52.8158 731.352-52.2107C731.767-52.1519 732.055-51.7757 731.995-51.3705 731.971-51.2093 731.893-51.0602 731.774-50.9465L728.69-48.0107 729.418-43.867C729.489-43.4634 729.211-43.08 728.798-43.0107 728.633-42.9831 728.464-43.0092 728.316-43.0851L724.504-45.0423 720.691-43.0851C720.32-42.8947 719.861-43.0342 719.666-43.3969 719.588-43.5408 719.561-43.7057 719.589-43.8659L720.318-48.0117 717.233-50.9465C716.932-51.232 716.925-51.7013 717.218-51.9949 717.334-52.1121 717.488-52.1884 717.654-52.2118L721.916-52.8158 723.822-56.5869C723.95-56.84 724.214-57.0002 724.504-57ZM724.504-54.5831 723.101-51.8105C722.991-51.5919 722.777-51.4404 722.53-51.4051L719.395-50.9603 721.663-48.8015C721.842-48.6312 721.924-48.3857 721.881-48.1451L721.347-45.0966 724.15-46.5358C724.372-46.6494 724.636-46.6494 724.857-46.5358L727.661-45.0966 727.125-48.1451C727.082-48.3857 727.164-48.6312 727.343-48.8015L729.611-50.9594 726.477-51.4042C726.23-51.4395 726.016-51.591 725.906-51.8094L724.504-54.5841 724.504-54.5831Z"
              fill="#FFFFFF" fill-rule="evenodd"/>
        <path d="M245.5 584.886C245.5 578.598 250.598 573.5 256.886 573.5L630.114 573.5C636.402 573.5 641.5 578.598 641.5 584.886L641.5 646.114C641.5 652.402 636.402 657.5 630.114 657.5L256.886 657.5C250.598 657.5 245.5 652.402 245.5 646.114Z"
              stroke="#FFFFFF" stroke-width="1.33333" stroke-miterlimit="8" fill="#2F0A0F" fill-rule="evenodd"/>
        <path d="M267.5 602.5C267.5 598.634 270.634 595.5 274.5 595.5L612.5 595.5C616.366 595.5 619.5 598.634 619.5 602.5L619.5 602.5C619.5 606.366 616.366 609.5 612.5 609.5L274.5 609.5C270.634 609.5 267.5 606.366 267.5 602.5Z"
              stroke="#FFFFFF" stroke-width="1.33333" stroke-miterlimit="8" fill="#2F0A0F" fill-rule="evenodd"/>
        <path d="M417.5 594.5 417.5 609.768" stroke="#FFFFFF" stroke-width="1.33333" stroke-miterlimit="8" fill="none"
              fill-rule="evenodd"/>
        <path d="M488.5 595.5 488.5 609.968" stroke="#FFFFFF" stroke-width="1.33333" stroke-miterlimit="8" fill="none"
              fill-rule="evenodd"/>
        <path d="M555.5 595.5 555.5 609.968" stroke="#FFFFFF" stroke-width="1.33333" stroke-miterlimit="8" fill="none"
              fill-rule="evenodd"/>
        <path d="M599.5 595.5 599.5 609.968" stroke="#FFFFFF" stroke-width="1.33333" stroke-miterlimit="8" fill="none"
              fill-rule="evenodd"/>
        <path d="M582.5 595.5 582.5 609.968" stroke="#FFFFFF" stroke-width="1.33333" stroke-miterlimit="8" fill="none"
              fill-rule="evenodd"/>
        <path d="M614.5 595.5 614.5 609.382" stroke="#FFFFFF" stroke-width="1.33333" stroke-miterlimit="8" fill="none"
              fill-rule="evenodd"/>
        <text fill="#FFFFFF" font-family="JetBrains Mono,JetBrains Mono_MSFontService,sans-serif" font-weight="500"
              font-size="16" transform="translate(294.618 636)">Py
            <tspan font-size="16" x="33" y="0">Php</tspan>
            <tspan font-size="16" x="77" y="0">Html Scss Js Css SQL</tspan>
        </text>
        <path d="M694.5 585.751C694.5 579.537 699.537 574.5 705.751 574.5L1003.25 574.5C1009.46 574.5 1014.5 579.537 1014.5 585.751L1014.5 646.249C1014.5 652.463 1009.46 657.5 1003.25 657.5L705.751 657.5C699.537 657.5 694.5 652.463 694.5 646.249Z"
              stroke="#FFFFFF" stroke-width="1.33333" stroke-miterlimit="8" fill="#2F0A0F" fill-rule="evenodd"/>
        <text fill="#FFFFFF" font-family="JetBrains Mono,JetBrains Mono_MSFontService,sans-serif" font-weight="500"
              font-size="16" transform="translate(743.041 607)">Best
            <tspan font-size="16" x="55" y="0">streak:</tspan>
            <tspan font-size="16" x="143" y="0">29</tspan>
            <tspan font-size="16" x="176" y="0">days</tspan>
        </text>
        <g clip-path="url(#clip1)">
            <g clip-path="url(#clip2)">
                <g clip-path="url(#clip3)">
                    <path d="M725.5 594.75C725.5 594.336 725.164 594 724.75 594 724.336 594 724 594.336 724 594.75L724 599.94 721.391 597.33C721.103 597.032 720.628 597.024 720.331 597.312 720.033 597.6 720.025 598.075 720.313 598.373 720.319 598.379 720.325 598.385 720.331 598.391L722.939 601 717.75 601C717.336 601 717 601.336 717 601.75 717 602.164 717.336 602.5 717.75 602.5L722.94 602.5 720.33 605.109C720.032 605.397 720.024 605.872 720.312 606.169 720.6 606.467 721.075 606.475 721.373 606.187 721.379 606.181 721.385 606.175 721.391 606.169L724 603.561 724 608.75C724 609.164 724.336 609.5 724.75 609.5 725.164 609.5 725.5 609.164 725.5 608.75L725.5 603.56 728.109 606.17C728.397 606.468 728.872 606.476 729.169 606.188 729.467 605.9 729.475 605.425 729.187 605.127 729.181 605.121 729.175 605.115 729.169 605.109L726.561 602.5 731.75 602.5C732.164 602.5 732.5 602.164 732.5 601.75 732.5 601.336 732.164 601 731.75 601L726.56 601 729.17 598.391C729.458 598.093 729.449 597.618 729.151 597.331 728.86 597.05 728.399 597.05 728.109 597.331L725.5 599.939 725.5 594.75Z"
                          fill="#FFFFFF"/>
                </g>
            </g>
        </g>
        <text fill="#FFFFFF" font-family="JetBrains Mono,JetBrains Mono_MSFontService,sans-serif" font-weight="500"
              font-size="16" transform="translate(743.041 634)">~7.02
            <tspan font-size="16" x="66" y="0">commits par day</tspan>
        </text>
        <g clip-path="url(#clip4)">
            <g clip-path="url(#clip5)">
                <g clip-path="url(#clip6)">
                    <path d="M718.5 621.75C718.5 621.336 718.164 621 717.75 621 717.336 621 717 621.336 717 621.75L717 634.25C717 634.664 717.336 635 717.75 635L732.25 635C732.664 635 733 634.664 733 634.25 733 633.836 732.664 633.5 732.25 633.5L718.5 633.5 718.5 621.75ZM732.78 624.28C733.062 623.977 733.046 623.502 732.743 623.22 732.455 622.952 732.008 622.952 731.72 623.22L727 627.94 724.53 625.47C724.237 625.178 723.763 625.178 723.47 625.47L720.22 628.72C719.938 629.023 719.954 629.498 720.257 629.78 720.545 630.048 720.992 630.048 721.28 629.78L724 627.06 726.47 629.53C726.763 629.822 727.237 629.822 727.53 629.53L732.78 624.28Z"
                          fill="#FFFFFF" fill-rule="evenodd"/>
                </g>
            </g>
        </g>
    </g>
</svg>